# xmcd
#
# Track frame offsets:
#	150
#	23722
#	41402
#	62435
#	84935
#	101702
#	114055
#	129765
#	143375
#	156612
#	168950
#	186265
#	204950
#	220732
#	239555
#
# Disc length: 3343
#
# Revision: 1
# Processed by: cddbd v1.5.1PL0 Copyright (c) Steve Scherf et al.
# Submitted via: inCDius 1.1b8
# Normalized: r0:DSETVAR1
#
DISCID=b90d0d0f
DTITLE=Various Artist - Super Soul Blues - Volume 1
DYEAR=1900
DGENRE=
TTITLE0=Roll and Tumble - John Lee Hooker
TTITLE1=Shake A Hand - Tina Turner
TTITLE2=Good Woman Go Bad - Barbara Carr
TTITLE3=Dip My Dipper - Cicero Blake
TTITLE4=Houston Town - Ted Taylor
TTITLE5=Bowlegged Woman, Knock Kneed Man - Bobby Rush
TTITLE6=I Wanna Dance - Memphis Slim
TTITLE7=Southern Country Boy - Carter Brothers
TTITLE8=C. C. Rider - Bobby Powell
TTITLE9=My Back Scratcher - Frank Frost
TTITLE10=My Tomorrow - Little Joe Blue
TTITLE11=Jimmie - Artie White
TTITLE12=Goin To Get It On - Little Johnny Taylor
TTITLE13=School Of Life - Cicero Blake
TTITLE14=Black Water Cold - African Music Machine
EXTD=
EXTT0=
EXTT1=
EXTT2=
EXTT3=
EXTT4=
EXTT5=
EXTT6=
EXTT7=
EXTT8=
EXTT9=
EXTT10=
EXTT11=
EXTT12=
EXTT13=
EXTT14=
PLAYORDER=
